<svg width="700" height="700" xmlns="http://www.w3.org/2000/svg" version="1.1">
  <style type="text/css">
    .st0{fill:#ffffff;}
	.st1{fill:#45a59d;}
    .st2{fill:#FFD400;}
    .st3{fill:#2A6867;}
    .st4{fill:#757AA3;}
    .st5{fill:#793E73;}
    .st6{fill:#206782;}
    .st9{fill:#424a54;}

</style>
 <g>
  <rect class="st9" stroke="#000" x="0" y="0" width="700" height="700" id="svg_3" stroke-dasharray="2,2"/>
  <path class="st6" id="svg_4" d="m396.69748,135.91249l-93.406,0c-8.625,0 -15.734,7.0547 -15.734,15.734l-0.00391,47.715c0,8.6797 7.0547,15.68 15.734,15.68l93.406,0c8.625,0 15.734,-7 15.734,-15.68l0.00782,-47.711c0,-8.6797 -7.1133,-15.738 -15.738,-15.738l0.00009,0z"/>
  <path class="st3" id="svg_5" d="m230.94748,135.91249l-93.41,0c-8.6797,0 -15.68,7.0547 -15.68,15.734l0,47.715c0,8.6797 7,15.68 15.68,15.68l93.406,0c8.625,0 15.625,-7 15.625,-15.68l0,-47.711c0,-8.6797 -7,-15.738 -15.621,-15.738z"/>
  <path class="st5" id="svg_6" d="m562.51748,135.91249l-93.465,0c-8.625,0 -15.734,7.0547 -15.734,15.734l0,47.715c0,8.6797 7.1133,15.68 15.734,15.68l93.465,0c8.625,0 15.625,-7 15.625,-15.68l0,-47.711c0,-8.6797 -7,-15.738 -15.625,-15.738z"/>
  <path class="st2" id="svg_7" d="m396.69748,252.34249l-93.406,0c-8.625,0 -15.734,7 -15.734,15.68l0,47.711c0,8.625 7.0547,15.625 15.734,15.625l93.406,0c8.625,0 15.734,-7 15.734,-15.625l0.00391,-47.711c0,-8.6797 -7.1133,-15.68 -15.738,-15.68l0.00009,0z"/>
  <path class="st1" id="svg_8" d="m230.94748,252.34249l-93.41,0c-8.6797,0 -15.68,7 -15.68,15.68l0,47.711c0,8.625 7,15.625 15.68,15.625l93.406,0c8.625,0 15.625,-7 15.625,-15.625l0,-47.711c0,-8.6797 -7,-15.68 -15.621,-15.68z"/>
  <path class="st6" id="svg_9" d="m562.51748,252.34249l-93.465,0c-8.625,0 -15.734,7 -15.734,15.68l0,47.711c0,8.625 7.1133,15.625 15.734,15.625l93.465,0c8.625,0 15.625,-7 15.625,-15.625l0,-47.711c0,-8.6797 -7,-15.68 -15.625,-15.68z"/>
  <path class="st6" id="svg_10" d="m396.69748,484.96249l-93.406,0c-8.625,0 -15.734,7 -15.734,15.734l0,47.711c0,8.6797 7.0547,15.68 15.734,15.68l93.406,0c8.625,0 15.734,-7 15.734,-15.68l0.00391,-47.711c0,-8.7344 -7.1133,-15.734 -15.738,-15.734l0.00009,0z"/>
  <path class="st6" id="svg_11" d="m396.69748,368.59249l-93.406,0c-8.625,0 -15.734,7.1133 -15.734,15.734l0,47.656c0,8.7344 7.0547,15.734 15.734,15.734l93.406,0c8.625,0 15.734,-7 15.734,-15.734l0.00391,-47.656c0,-8.625 -7.1133,-15.734 -15.738,-15.734l0.00009,0z"/>
  <path class="st4" id="svg_12" d="m230.94748,368.59249l-93.41,0c-8.6797,0 -15.68,7.1133 -15.68,15.734l0,47.656c0,8.7344 7,15.734 15.68,15.734l93.406,0c8.625,0 15.625,-7 15.625,-15.734l0,-47.656c0,-8.625 -7,-15.734 -15.621,-15.734z"/>
  <path class="st1" id="svg_13" d="m562.51748,368.59249l-93.465,0c-8.625,0 -15.734,7.1133 -15.734,15.734l0,47.656c0,8.7344 7.1133,15.734 15.734,15.734l93.465,0c8.625,0 15.625,-7 15.625,-15.734l0,-47.656c0,-8.625 -7,-15.734 -15.625,-15.734z"/>
  <path class="st1" id="svg_14" d="m232.70105,484.96249l-93.406,0c-8.625,0 -15.734,7 -15.734,15.734l0,47.711c0,8.6797 7.0547,15.68 15.734,15.68l93.406,0c8.625,0 15.734,-7 15.734,-15.68l0.00391,-47.711c0,-8.7344 -7.1133,-15.734 -15.738,-15.734l0.00009,0z"/>
 </g>
</svg>
